# xmcd
#
# Track frame offsets:
#	150
#	18556
#	40401
#	60789
#	76948
#	96121
#	113456
#	129870
#	148418
#	166418
#	186369
#	203034
#	218871
#	232760
#	252470
#	279691
#
# Disc length: 3737 seconds
#
# Revision: 1
# Processed by: cddbd v1.5.2PL0 Copyright (c) Steve Scherf et al.
# Submitted via: audiograbber 1.83.01
#
DISCID=db0e9710
DTITLE=Sound Choice - SC8982
DYEAR=1900
DGENRE=
TTITLE0=Turner, Josh - Would You Go With Me
TTITLE1=Brooks, Garth and Yearwood, Trisha - Love Will Always Win
TTITLE2=Urban, Keith - Tonight I Wanna Cry
TTITLE3=Adkins, Trace - Swing
TTITLE4=Paisley, Brad - The World
TTITLE5=Rascal Flatts - Me And My Gang
TTITLE6=Roberts, Julie - Men And Mascara
TTITLE7=Lambert, Miranda - New Strings (Radio)
TTITLE8=Krauss, Alison and Union Station - If I Didn't Know Any Better
TTITLE9=McGraw, Tim - I Got Friends That Do
TTITLE10=Wreckers - Leave The Pieces
TTITLE11=Keith, Toby - Hell No
TTITLE12=Wilson, Gretchen - California Girls
TTITLE13=Keith, Toby - A Little Too Late
TTITLE14=McBride, Martina - Til I Can Make It On My Own
TTITLE15=xx - Data Track
EXTD=
EXTT0=
EXTT1=
EXTT2=
EXTT3=
EXTT4=
EXTT5=
EXTT6=
EXTT7=
EXTT8=
EXTT9=
EXTT10=
EXTT11=
EXTT12=
EXTT13=
EXTT14=
EXTT15=
PLAYORDER=
